<mxfile host="app.diagrams.net" agent="Mozilla/5.0 (Windows NT 10.0; Win64; x64) AppleWebKit/537.36 (KHTML, like Gecko) Chrome/139.0.0.0 Safari/537.36" version="28.1.0">
  <diagram name="Página-1" id="2OvhBWqQFfTCUT101Jvx">
    <mxGraphModel dx="1426" dy="1946" grid="1" gridSize="10" guides="1" tooltips="1" connect="1" arrows="1" fold="1" page="1" pageScale="1" pageWidth="827" pageHeight="1169" math="0" shadow="0">
      <root>
        <mxCell id="0" />
        <mxCell id="1" parent="0" />
        <mxCell id="G6RRtLxQ0GhBOxDFwJa--3" style="edgeStyle=orthogonalEdgeStyle;rounded=0;orthogonalLoop=1;jettySize=auto;html=1;exitX=1;exitY=0.5;exitDx=0;exitDy=0;" edge="1" parent="1">
          <mxGeometry relative="1" as="geometry">
            <mxPoint x="240" y="320" as="targetPoint" />
            <mxPoint x="190" y="320" as="sourcePoint" />
          </mxGeometry>
        </mxCell>
        <mxCell id="G6RRtLxQ0GhBOxDFwJa--5" style="edgeStyle=orthogonalEdgeStyle;rounded=0;orthogonalLoop=1;jettySize=auto;html=1;exitX=0.5;exitY=1;exitDx=0;exitDy=0;" edge="1" parent="1" source="G6RRtLxQ0GhBOxDFwJa--4">
          <mxGeometry relative="1" as="geometry">
            <mxPoint x="300" y="400" as="targetPoint" />
          </mxGeometry>
        </mxCell>
        <mxCell id="G6RRtLxQ0GhBOxDFwJa--4" value="Verificar horário de funcionamento&amp;nbsp;" style="rounded=0;whiteSpace=wrap;html=1;" vertex="1" parent="1">
          <mxGeometry x="240" y="290" width="120" height="60" as="geometry" />
        </mxCell>
        <mxCell id="G6RRtLxQ0GhBOxDFwJa--7" value="INICIO" style="strokeWidth=2;html=1;shape=mxgraph.flowchart.start_1;whiteSpace=wrap;" vertex="1" parent="1">
          <mxGeometry x="90" y="290" width="100" height="60" as="geometry" />
        </mxCell>
        <mxCell id="G6RRtLxQ0GhBOxDFwJa--14" style="edgeStyle=orthogonalEdgeStyle;rounded=0;orthogonalLoop=1;jettySize=auto;html=1;exitX=1;exitY=0.5;exitDx=0;exitDy=0;" edge="1" parent="1" source="G6RRtLxQ0GhBOxDFwJa--13">
          <mxGeometry relative="1" as="geometry">
            <mxPoint x="390" y="445" as="targetPoint" />
          </mxGeometry>
        </mxCell>
        <mxCell id="G6RRtLxQ0GhBOxDFwJa--15" value="Sim" style="edgeLabel;html=1;align=center;verticalAlign=middle;resizable=0;points=[];" vertex="1" connectable="0" parent="G6RRtLxQ0GhBOxDFwJa--14">
          <mxGeometry x="-0.077" y="-1" relative="1" as="geometry">
            <mxPoint as="offset" />
          </mxGeometry>
        </mxCell>
        <mxCell id="G6RRtLxQ0GhBOxDFwJa--13" value="&amp;nbsp;Horário Disponível" style="rhombus;whiteSpace=wrap;html=1;" vertex="1" parent="1">
          <mxGeometry x="255" y="400" width="90" height="90" as="geometry" />
        </mxCell>
        <mxCell id="G6RRtLxQ0GhBOxDFwJa--31" style="edgeStyle=orthogonalEdgeStyle;rounded=0;orthogonalLoop=1;jettySize=auto;html=1;exitX=1;exitY=0.5;exitDx=0;exitDy=0;entryX=0;entryY=0.5;entryDx=0;entryDy=0;" edge="1" parent="1" source="G6RRtLxQ0GhBOxDFwJa--16" target="G6RRtLxQ0GhBOxDFwJa--17">
          <mxGeometry relative="1" as="geometry" />
        </mxCell>
        <mxCell id="G6RRtLxQ0GhBOxDFwJa--16" value="Localizar acervo online da biblioteca&amp;nbsp;" style="rounded=0;whiteSpace=wrap;html=1;" vertex="1" parent="1">
          <mxGeometry x="390" y="415" width="120" height="60" as="geometry" />
        </mxCell>
        <mxCell id="G6RRtLxQ0GhBOxDFwJa--32" style="edgeStyle=orthogonalEdgeStyle;rounded=0;orthogonalLoop=1;jettySize=auto;html=1;exitX=0.5;exitY=0;exitDx=0;exitDy=0;" edge="1" parent="1" source="G6RRtLxQ0GhBOxDFwJa--17" target="G6RRtLxQ0GhBOxDFwJa--33">
          <mxGeometry relative="1" as="geometry">
            <mxPoint x="625" y="360" as="targetPoint" />
          </mxGeometry>
        </mxCell>
        <mxCell id="G6RRtLxQ0GhBOxDFwJa--17" value="Livro Disponível&amp;nbsp;&amp;nbsp;" style="rhombus;whiteSpace=wrap;html=1;" vertex="1" parent="1">
          <mxGeometry x="560" y="395" width="130" height="100" as="geometry" />
        </mxCell>
        <mxCell id="G6RRtLxQ0GhBOxDFwJa--41" style="edgeStyle=orthogonalEdgeStyle;rounded=0;orthogonalLoop=1;jettySize=auto;html=1;exitX=0.5;exitY=0;exitDx=0;exitDy=0;entryX=0.5;entryY=1;entryDx=0;entryDy=0;" edge="1" parent="1" source="G6RRtLxQ0GhBOxDFwJa--33" target="G6RRtLxQ0GhBOxDFwJa--39">
          <mxGeometry relative="1" as="geometry" />
        </mxCell>
        <mxCell id="G6RRtLxQ0GhBOxDFwJa--33" value="Localizar prateleira do livro" style="rounded=0;whiteSpace=wrap;html=1;" vertex="1" parent="1">
          <mxGeometry x="565" y="290" width="120" height="60" as="geometry" />
        </mxCell>
        <mxCell id="G6RRtLxQ0GhBOxDFwJa--34" value="FIM" style="strokeWidth=2;html=1;shape=mxgraph.flowchart.start_1;whiteSpace=wrap;" vertex="1" parent="1">
          <mxGeometry x="390" y="600" width="100" height="60" as="geometry" />
        </mxCell>
        <mxCell id="G6RRtLxQ0GhBOxDFwJa--35" style="edgeStyle=orthogonalEdgeStyle;rounded=0;orthogonalLoop=1;jettySize=auto;html=1;exitX=0.5;exitY=1;exitDx=0;exitDy=0;entryX=0;entryY=0.5;entryDx=0;entryDy=0;entryPerimeter=0;" edge="1" parent="1" source="G6RRtLxQ0GhBOxDFwJa--13" target="G6RRtLxQ0GhBOxDFwJa--34">
          <mxGeometry relative="1" as="geometry" />
        </mxCell>
        <mxCell id="G6RRtLxQ0GhBOxDFwJa--36" value="Nao" style="edgeLabel;html=1;align=center;verticalAlign=middle;resizable=0;points=[];" vertex="1" connectable="0" parent="G6RRtLxQ0GhBOxDFwJa--35">
          <mxGeometry x="-0.4348" y="-2" relative="1" as="geometry">
            <mxPoint as="offset" />
          </mxGeometry>
        </mxCell>
        <mxCell id="G6RRtLxQ0GhBOxDFwJa--37" style="edgeStyle=orthogonalEdgeStyle;rounded=0;orthogonalLoop=1;jettySize=auto;html=1;exitX=0.5;exitY=1;exitDx=0;exitDy=0;entryX=1;entryY=0.5;entryDx=0;entryDy=0;entryPerimeter=0;" edge="1" parent="1" source="G6RRtLxQ0GhBOxDFwJa--17" target="G6RRtLxQ0GhBOxDFwJa--34">
          <mxGeometry relative="1" as="geometry" />
        </mxCell>
        <mxCell id="G6RRtLxQ0GhBOxDFwJa--38" value="Nao" style="edgeLabel;html=1;align=center;verticalAlign=middle;resizable=0;points=[];" vertex="1" connectable="0" parent="G6RRtLxQ0GhBOxDFwJa--37">
          <mxGeometry x="-0.5111" y="-3" relative="1" as="geometry">
            <mxPoint as="offset" />
          </mxGeometry>
        </mxCell>
        <mxCell id="G6RRtLxQ0GhBOxDFwJa--42" style="edgeStyle=orthogonalEdgeStyle;rounded=0;orthogonalLoop=1;jettySize=auto;html=1;exitX=0;exitY=0.5;exitDx=0;exitDy=0;" edge="1" parent="1" source="G6RRtLxQ0GhBOxDFwJa--39">
          <mxGeometry relative="1" as="geometry">
            <mxPoint x="480" y="200" as="targetPoint" />
          </mxGeometry>
        </mxCell>
        <mxCell id="G6RRtLxQ0GhBOxDFwJa--43" value="Nao" style="edgeLabel;html=1;align=center;verticalAlign=middle;resizable=0;points=[];" vertex="1" connectable="0" parent="G6RRtLxQ0GhBOxDFwJa--42">
          <mxGeometry x="-0.0568" y="-1" relative="1" as="geometry">
            <mxPoint x="1" as="offset" />
          </mxGeometry>
        </mxCell>
        <mxCell id="G6RRtLxQ0GhBOxDFwJa--45" style="edgeStyle=orthogonalEdgeStyle;rounded=0;orthogonalLoop=1;jettySize=auto;html=1;exitX=0.5;exitY=0;exitDx=0;exitDy=0;" edge="1" parent="1" source="G6RRtLxQ0GhBOxDFwJa--39">
          <mxGeometry relative="1" as="geometry">
            <mxPoint x="625" y="80" as="targetPoint" />
          </mxGeometry>
        </mxCell>
        <mxCell id="G6RRtLxQ0GhBOxDFwJa--46" value="Sim" style="edgeLabel;html=1;align=center;verticalAlign=middle;resizable=0;points=[];" vertex="1" connectable="0" parent="G6RRtLxQ0GhBOxDFwJa--45">
          <mxGeometry x="-0.0922" y="-5" relative="1" as="geometry">
            <mxPoint as="offset" />
          </mxGeometry>
        </mxCell>
        <mxCell id="G6RRtLxQ0GhBOxDFwJa--39" value="Está inscrito na biblioteca?" style="rhombus;whiteSpace=wrap;html=1;" vertex="1" parent="1">
          <mxGeometry x="567.5" y="150" width="115" height="100" as="geometry" />
        </mxCell>
        <mxCell id="G6RRtLxQ0GhBOxDFwJa--48" style="edgeStyle=orthogonalEdgeStyle;rounded=0;orthogonalLoop=1;jettySize=auto;html=1;exitX=0.5;exitY=0;exitDx=0;exitDy=0;entryX=0;entryY=0.5;entryDx=0;entryDy=0;" edge="1" parent="1" source="G6RRtLxQ0GhBOxDFwJa--44" target="G6RRtLxQ0GhBOxDFwJa--47">
          <mxGeometry relative="1" as="geometry" />
        </mxCell>
        <mxCell id="G6RRtLxQ0GhBOxDFwJa--44" value="Preparar documentos pessoais para cadastro" style="rounded=0;whiteSpace=wrap;html=1;" vertex="1" parent="1">
          <mxGeometry x="360" y="170" width="120" height="60" as="geometry" />
        </mxCell>
        <mxCell id="G6RRtLxQ0GhBOxDFwJa--53" style="edgeStyle=orthogonalEdgeStyle;rounded=0;orthogonalLoop=1;jettySize=auto;html=1;exitX=0.5;exitY=0;exitDx=0;exitDy=0;entryX=0.5;entryY=1;entryDx=0;entryDy=0;" edge="1" parent="1" source="G6RRtLxQ0GhBOxDFwJa--47" target="G6RRtLxQ0GhBOxDFwJa--50">
          <mxGeometry relative="1" as="geometry" />
        </mxCell>
        <mxCell id="G6RRtLxQ0GhBOxDFwJa--47" value="Pegar o livro na biblioteca&amp;nbsp;" style="rounded=0;whiteSpace=wrap;html=1;" vertex="1" parent="1">
          <mxGeometry x="567.5" y="20" width="120" height="60" as="geometry" />
        </mxCell>
        <mxCell id="G6RRtLxQ0GhBOxDFwJa--50" value="Se apresentar ao balcão com a carteirinha e o livro" style="rounded=0;whiteSpace=wrap;html=1;" vertex="1" parent="1">
          <mxGeometry x="565" y="-90" width="120" height="60" as="geometry" />
        </mxCell>
      </root>
    </mxGraphModel>
  </diagram>
</mxfile>
